<?xml version="1.0" encoding="UTF-8" standalone="no"?>
<svg
   xmlns:dc="http://purl.org/dc/elements/1.1/"
   xmlns:cc="http://creativecommons.org/ns#"
   xmlns:rdf="http://www.w3.org/1999/02/22-rdf-syntax-ns#"
   xmlns:svg="http://www.w3.org/2000/svg"
   xmlns="http://www.w3.org/2000/svg"
   xmlns:xlink="http://www.w3.org/1999/xlink"
   xmlns:sodipodi="http://sodipodi.sourceforge.net/DTD/sodipodi-0.dtd"
   xmlns:inkscape="http://www.inkscape.org/namespaces/inkscape"
   width="31.501194mm"
   height="10.67052mm"
   version="1.1"
   viewBox="0 0 31.501193 10.67052"
   id="svg1340"
   sodipodi:docname="logo.svg"
   inkscape:version="1.0.2 (e86c870879, 2021-01-15)">
  <sodipodi:namedview
     pagecolor="#ffffff"
     bordercolor="#666666"
     borderopacity="1"
     objecttolerance="10"
     gridtolerance="10"
     guidetolerance="10"
     inkscape:pageopacity="0"
     inkscape:pageshadow="2"
     inkscape:window-width="1920"
     inkscape:window-height="1016"
     id="namedview1342"
     showgrid="false"
     inkscape:zoom="7.9439809"
     inkscape:cx="64.585558"
     inkscape:cy="43.100745"
     inkscape:window-x="0"
     inkscape:window-y="27"
     inkscape:window-maximized="1"
     inkscape:current-layer="svg1340"
     fit-margin-top="0"
     fit-margin-left="0"
     fit-margin-right="0"
     fit-margin-bottom="0"
     inkscape:document-rotation="0" />
  <defs
     id="defs1310">
    <symbol
       id="symbol4427"
       overflow="visible">
      <path
         d="M 4.2031,5.3281 0.6562,9.7031 C 0.578075,9.79685 0.56245,9.81248 0.56245,9.85935 c 0,0.10938 0.09375,0.10938 0.28125,0.10938 h 8.25 l 0.85938,-2.4844 h -0.25 c -0.25,0.75 -0.90625,1.3594 -1.7656,1.6406 -0.15625,0.0625 -0.84375,0.29688 -2.3125,0.29688 h -4.2344 l 3.4688,-4.2812 c 0.0625,-0.09375 0.078125,-0.10938 0.078125,-0.15625 0,-0.04687 0,-0.046875 -0.0625,-0.14062 l -3.2344,-4.4375 h 3.9375 c 1.1406,0 3.4375,0.0625 4.125,1.9219 h 0.25 L 9.093725,4e-5 h -8.25 c -0.28125,0 -0.28125,0.015625 -0.28125,0.3125 z"
         id="path1283" />
    </symbol>
    <symbol
       id="symbol1495"
       overflow="visible">
      <path
         d="m 0.84375,-0.4375 c -0.015625,0.09375 -0.0625,0.26562 -0.0625,0.28125 0,0.15625 0.125,0.21875 0.23438,0.21875 0.125,0 0.23438,-0.078125 0.28125,-0.14062 0.03125,-0.0625 0.078125,-0.29688 0.125,-0.4375 0.03125,-0.125 0.10938,-0.45312 0.14062,-0.625 0.046875,-0.15625 0.09375,-0.3125 0.125,-0.46875 0.078125,-0.28125 0.09375,-0.34375 0.29688,-0.625 0.1875,-0.28125 0.51562,-0.64062 1.0469,-0.64062 0.39062,0 0.40625,0.35938 0.40625,0.48438 0,0.42188 -0.29688,1.1875 -0.40625,1.4844 -0.078125,0.20312 -0.10938,0.26562 -0.10938,0.375 0,0.375 0.29688,0.59375 0.65625,0.59375 0.70312,0 1,-0.95312 1,-1.0625 0,-0.09375 -0.078125,-0.09375 -0.10938,-0.09375 -0.09375,0 -0.09375,0.046875 -0.125,0.125 -0.15625,0.5625 -0.46875,0.84375 -0.73438,0.84375 -0.15625,0 -0.1875,-0.09375 -0.1875,-0.25 0,-0.15625 0.046875,-0.25 0.17188,-0.5625 0.078125,-0.21875 0.35938,-0.95312 0.35938,-1.3438 0,-0.67188 -0.53125,-0.79688 -0.90625,-0.79688 -0.57812,0 -0.96875,0.35938 -1.1719,0.64062 -0.046875,-0.48438 -0.45312,-0.64062 -0.75,-0.64062 -0.29688,0 -0.45312,0.21875 -0.54688,0.375 -0.15625,0.26562 -0.25,0.65625 -0.25,0.70312 0,0.078125 0.09375,0.078125 0.125,0.078125 0.09375,0 0.09375,-0.015625 0.14062,-0.20312 0.10938,-0.40625 0.25,-0.75 0.51562,-0.75 0.1875,0 0.23438,0.15625 0.23438,0.34375 0,0.125 -0.0625,0.39062 -0.125,0.57812 -0.046875,0.1875 -0.10938,0.46875 -0.14062,0.625 z"
         id="path1286" />
    </symbol>
    <symbol
       id="symbol3750"
       overflow="visible">
      <path
         d="m 2.2656,-4.3594 c 0,-0.10938 -0.09375,-0.26562 -0.28125,-0.26562 -0.1875,0 -0.39062,0.1875 -0.39062,0.39062 0,0.10938 0.078125,0.26562 0.28125,0.26562 0.1875,0 0.39062,-0.20312 0.39062,-0.39062 z m -1.4219,3.5469 c -0.03125,0.09375 -0.0625,0.17188 -0.0625,0.29688 0,0.32812 0.26562,0.57812 0.65625,0.57812 0.6875,0 1,-0.95312 1,-1.0625 0,-0.09375 -0.09375,-0.09375 -0.10938,-0.09375 -0.09375,0 -0.10938,0.046875 -0.14062,0.125 -0.15625,0.5625 -0.45312,0.84375 -0.73438,0.84375 -0.14062,0 -0.17188,-0.09375 -0.17188,-0.25 0,-0.15625 0.046875,-0.28125 0.10938,-0.4375 C 1.468695,-1 1.54682,-1.1875 1.60932,-1.375 c 0.0625,-0.17188 0.32812,-0.79688 0.34375,-0.89062 0.03125,-0.0625 0.046875,-0.14062 0.046875,-0.21875 0,-0.32812 -0.28125,-0.59375 -0.65625,-0.59375 -0.70312,0 -1.0156,0.95312 -1.0156,1.0781 0,0.078125 0.09375,0.078125 0.125,0.078125 0.09375,0 0.09375,-0.03125 0.125,-0.10938 0.17188,-0.59375 0.48438,-0.84375 0.73438,-0.84375 0.10938,0 0.17188,0.046875 0.17188,0.23438 0,0.17188 -0.03125,0.26562 -0.20312,0.70312 z"
         id="path1289" />
    </symbol>
    <symbol
       id="symbol5988"
       overflow="visible">
      <path
         d="M 1.7344,-0.73438 C 1.6719,-0.5 1.43752,-0.125 1.07815,-0.125 c -0.015625,0 -0.23438,0 -0.375,-0.09375 0.28125,-0.09375 0.3125,-0.34375 0.3125,-0.39062 0,-0.15625 -0.125,-0.25 -0.28125,-0.25 -0.20312,0 -0.40625,0.15625 -0.40625,0.42188 0,0.34375 0.39062,0.5 0.73438,0.5 0.32812,0 0.60938,-0.1875 0.78125,-0.48438 0.17188,0.35938 0.54688,0.48438 0.82812,0.48438 0.8125,0 1.2344,-0.85938 1.2344,-1.0625 0,-0.09375 -0.09375,-0.09375 -0.10938,-0.09375 -0.10938,0 -0.10938,0.046875 -0.14062,0.125 -0.14062,0.48438 -0.5625,0.84375 -0.95312,0.84375 -0.28125,0 -0.42188,-0.1875 -0.42188,-0.45312 0,-0.1875 0.17188,-0.8125 0.35938,-1.5938 0.14062,-0.53125 0.45312,-0.70312 0.6875,-0.70312 0.015625,0 0.21875,0 0.375,0.09375 -0.21875,0.0625 -0.3125,0.26562 -0.3125,0.39062 0,0.14062 0.125,0.25 0.28125,0.25 0.15625,0 0.39062,-0.125 0.39062,-0.42188 0,-0.39062 -0.45312,-0.51562 -0.71875,-0.51562 -0.35938,0 -0.64062,0.23438 -0.78125,0.5 -0.125,-0.28125 -0.45312,-0.5 -0.84375,-0.5 -0.78125,0 -1.2188,0.85938 -1.2188,1.0781 0,0.078125 0.09375,0.078125 0.10938,0.078125 0.09375,0 0.09375,-0.015625 0.14062,-0.10938 0.17188,-0.54688 0.60938,-0.84375 0.95312,-0.84375 0.23438,0 0.42188,0.125 0.42188,0.45312 0,0.14062 -0.09375,0.48438 -0.15625,0.73438 z"
         id="path1292" />
    </symbol>
    <symbol
       id="symbol9849"
       overflow="visible">
      <path
         d="m 5.3594,-2.3438 c 0.09375,0 0.25,0 0.25,-0.17188 0,-0.17188 -0.15625,-0.17188 -0.25,-0.17188 H 0.75 c -0.09375,0 -0.26562,0 -0.26562,0.17188 0,0.17188 0.15625,0.17188 0.26562,0.17188 z m 0,1.5312 c 0.09375,0 0.25,0 0.25,-0.15625 0,-0.1875 -0.15625,-0.1875 -0.25,-0.1875 H 0.75 c -0.10938,0 -0.26562,0 -0.26562,0.1875 0,0.15625 0.17188,0.15625 0.26562,0.15625 z"
         id="path1295" />
    </symbol>
    <symbol
       id="symbol6534"
       overflow="visible">
      <path
         d="m 2.3281,-4.4375 c 0,-0.1875 0,-0.1875 -0.20312,-0.1875 -0.45312,0.4375 -1.0781,0.4375 -1.3594,0.4375 v 0.25 c 0.15625,0 0.625,0 1,-0.1875 v 3.5469 c 0,0.23438 0,0.32812 -0.6875,0.32812 H 0.81246 v 0.25 c 0.125,0 0.98438,-0.03125 1.2344,-0.03125 0.21875,0 1.0938,0.03125 1.25,0.03125 v -0.25 H 3.03124 c -0.70312,0 -0.70312,-0.09375 -0.70312,-0.32812 z"
         id="path1298" />
    </symbol>
    <symbol
       id="symbol1855"
       overflow="visible">
      <path
         d="m 0.45312,1.2188 c -0.078125,0.34375 -0.10938,0.40625 -0.54688,0.40625 -0.10938,0 -0.21875,0 -0.21875,0.1875 0,0.078125 0.046875,0.125 0.125,0.125 0.26562,0 0.5625,-0.03125 0.82812,-0.03125 0.34375,0 0.67188,0.03125 1,0.03125 0.046875,0 0.17188,0 0.17188,-0.20312 0,-0.10938 -0.09375,-0.10938 -0.23438,-0.10938 -0.5,0 -0.5,-0.0625 -0.5,-0.15625 0,-0.125 0.42188,-1.75 0.48438,-2 0.125,0.29688 0.40625,0.64062 0.92188,0.64062 1.1562,0 2.4062,-1.4531 2.4062,-2.9219 0,-0.9375 -0.57812,-1.5938 -1.3281,-1.5938 -0.5,0 -0.98438,0.35938 -1.3125,0.75 -0.09375,-0.54688 -0.53125,-0.75 -0.89062,-0.75 -0.46875,0 -0.65625,0.39062 -0.73438,0.5625 -0.1875,0.34375 -0.3125,0.9375 -0.3125,0.96875 0,0.10938 0.09375,0.10938 0.10938,0.10938 0.10938,0 0.10938,-0.015625 0.17188,-0.23438 0.17188,-0.70312 0.375,-1.1875 0.73438,-1.1875 0.17188,0 0.3125,0.078125 0.3125,0.45312 0,0.23438 -0.03125,0.34375 -0.078125,0.51562 z m 1.75,-4.3281 c 0.0625,-0.26562 0.34375,-0.54688 0.51562,-0.70312 0.35938,-0.29688 0.64062,-0.375 0.8125,-0.375 0.39062,0 0.64062,0.34375 0.64062,0.9375 0,0.59375 -0.32812,1.7344 -0.51562,2.1094 -0.34375,0.70312 -0.8125,1.0312 -1.1875,1.0312 -0.65625,0 -0.78125,-0.82812 -0.78125,-0.89062 0,-0.015625 0,-0.03125 0.03125,-0.15625 z"
         id="path1301" />
    </symbol>
    <symbol
       id="symbol7484"
       overflow="visible">
      <path
         d="m 2.625,-4.3594 c -1.2344,0.29688 -2.2031,1.5938 -2.2031,2.7969 0,0.96875 0.64062,1.6875 1.5781,1.6875 1.1562,0 1.9844,-1.5781 1.9844,-2.9531 0,-0.90625 -0.39062,-1.4062 -0.73438,-1.8438 C 2.89064,-5.12502 2.2969,-5.875 2.2969,-6.3125 c 0,-0.21875 0.20312,-0.45312 0.54688,-0.45312 0.3125,0 0.5,0.125 0.71875,0.26562 0.20312,0.125 0.39062,0.25 0.54688,0.25 0.25,0 0.39062,-0.23438 0.39062,-0.40625 0,-0.21875 -0.15625,-0.23438 -0.51562,-0.32812 -0.51562,-0.10938 -0.65625,-0.10938 -0.8125,-0.10938 -0.78125,0 -1.1406,0.4375 -1.1406,1.0312 0,0.54688 0.29688,1.0938 0.59375,1.7031 z m 0.125,0.21875 c 0.25,0.46875 0.54688,1 0.54688,1.7188 0,0.65625 -0.375,2.3281 -1.2969,2.3281 -0.54688,0 -0.96875,-0.42188 -0.96875,-1.1875 0,-0.625 0.375,-2.5 1.7188,-2.8594 z"
         id="path1304" />
    </symbol>
    <symbol
       id="symbol9143"
       overflow="visible">
      <path
         d="m 1.9688,-3.1094 c 0,-0.125 -0.078125,-0.21875 -0.21875,-0.21875 -0.140625,0 -0.29688,0.14062 -0.29688,0.29688 0,0.14062 0.10938,0.21875 0.21875,0.21875 0.15625,0 0.29688,-0.14062 0.29688,-0.29688 z m 0.23438,2.3906 c 0,-0.0625 -0.078125,-0.0625 -0.09375,-0.0625 -0.09375,0 -0.09375,0.015625 -0.125,0.10938 -0.078125,0.26562 -0.3125,0.5625 -0.5625,0.5625 -0.10938,0 -0.14062,-0.078125 -0.14062,-0.1875 0,-0.109375 0.015625,-0.17188 0.0625,-0.26562 0.03125,-0.09375 0.078125,-0.1875 0.10938,-0.26562 0.015625,-0.046875 0.20312,-0.5 0.28125,-0.6875 0.03125,-0.09375 0.0625,-0.17188 0.0625,-0.25 0,-0.23438 -0.23438,-0.4375 -0.54688,-0.4375 -0.51562,0 -0.79688,0.64062 -0.79688,0.76562 0,0.078125 0.078125,0.078125 0.10938,0.078125 0.078125,0 0.078125,-0.03125 0.10938,-0.09375 0.10938,-0.35938 0.34375,-0.57812 0.5625,-0.57812 0.09375,0 0.15625,0.046875 0.15625,0.1875 0,0.015625 0,0.078125 -0.03125,0.17188 -0.03125,0.093755 -0.26562,0.625 -0.32812,0.79688 -0.046875,0.09375 -0.046875,0.09375 -0.10938,0.26562 -0.03125,0.078125 -0.0625,0.14062 -0.0625,0.21875 0,0.26562 0.25,0.45312 0.54688,0.45312 0.51562,0 0.79688,-0.65625 0.79688,-0.78125 z"
         id="path1307" />
    </symbol>
  </defs>
  <metadata
     id="metadata1312">
    <rdf:RDF>
      <cc:Work
         rdf:about="">
        <dc:format>image/svg+xml</dc:format>
        <dc:type
           rdf:resource="http://purl.org/dc/dcmitype/StillImage" />
        <dc:title />
      </cc:Work>
    </rdf:RDF>
  </metadata>
  <g
     id="g2354"
     transform="translate(-2.348653,0.26781786)"
     style="stroke-width:0.29999999;stroke-miterlimit:4;stroke-dasharray:none">
    <use
       x="91.925003"
       y="74.490997"
       width="100%"
       height="100%"
       xlink:href="#symbol4427"
       id="use1314"
       transform="translate(-89.788736,-74.408822)"
       style="fill:#3f61d7;fill-opacity:1;stroke:#3f61d7;stroke-width:0.29999999;stroke-miterlimit:4;stroke-dasharray:none;stroke-opacity:1" />
    <use
       x="117.506"
       y="81.962997"
       width="100%"
       height="100%"
       xlink:href="#symbol1855"
       id="use1324"
       transform="translate(-103.33436,-74.408822)"
       style="fill:#ca3a33;fill-opacity:1;stroke:#ca3a33;stroke-width:0.29999999;stroke-miterlimit:4;stroke-dasharray:none;stroke-opacity:1" />
    <use
       x="122.518"
       y="83.457001"
       width="100%"
       height="100%"
       xlink:href="#symbol3750"
       id="use1326"
       transform="translate(-103.33436,-74.408822)"
       style="fill:#ca3a33;fill-opacity:1;stroke:#ca3a33;stroke-width:0.29999999;stroke-miterlimit:4;stroke-dasharray:none;stroke-opacity:1" />
    <use
       x="125.835"
       y="81.962997"
       width="100%"
       height="100%"
       xlink:href="#symbol7484"
       id="use1328"
       transform="translate(-103.33436,-74.408822)"
       style="fill:#389723;fill-opacity:1;stroke:#389723;stroke-width:0.29999999;stroke-miterlimit:4;stroke-dasharray:none;stroke-opacity:1" />
    <use
       x="130.263"
       y="83.457001"
       width="100%"
       height="100%"
       xlink:href="#symbol5988"
       id="use1330"
       transform="translate(-103.33436,-74.408822)"
       style="fill:#9457b0;fill-opacity:1;stroke:#9457b0;stroke-width:0.29999999;stroke-miterlimit:4;stroke-dasharray:none;stroke-opacity:1" />
    <use
       x="134.78101"
       y="84.454002"
       width="100%"
       height="100%"
       xlink:href="#symbol9143"
       id="use1332"
       transform="translate(-103.33436,-74.408822)"
       style="fill:#9457b0;fill-opacity:1;stroke:#9457b0;stroke-width:0.29999999;stroke-miterlimit:4;stroke-dasharray:none;stroke-opacity:1" />
  </g>
</svg>
