<?xml version="1.0" encoding="UTF-8"?>
<svg width="87.05mm" height="23.922mm" version="1.1" viewBox="0 0 87.05 23.922" xmlns="http://www.w3.org/2000/svg" xmlns:cc="http://creativecommons.org/ns#" xmlns:dc="http://purl.org/dc/elements/1.1/" xmlns:rdf="http://www.w3.org/1999/02/22-rdf-syntax-ns#" xmlns:xlink="http://www.w3.org/1999/xlink">
 <defs>
  <symbol id="symbol5734" overflow="visible">
   <path d="m2.625-4.3594c-1.2344 0.29688-2.2031 1.5938-2.2031 2.7969 0 0.96875 0.64062 1.6875 1.5781 1.6875 1.1562 0 1.9844-1.5781 1.9844-2.9531 0-0.90625-0.39062-1.4062-0.73438-1.8438-0.35938-0.45312-0.95312-1.2031-0.95312-1.6406 0-0.21875 0.20312-0.45312 0.54688-0.45312 0.3125 0 0.5 0.125 0.71875 0.26562 0.20312 0.125 0.39062 0.25 0.54688 0.25 0.25 0 0.39062-0.23438 0.39062-0.40625 0-0.21875-0.15625-0.23438-0.51562-0.32812-0.51562-0.10938-0.65625-0.10938-0.8125-0.10938-0.78125 0-1.1406 0.4375-1.1406 1.0312 0 0.54688 0.29688 1.0938 0.59375 1.7031zm0.125 0.21875c0.25 0.46875 0.54688 1 0.54688 1.7188 0 0.65625-0.375 2.3281-1.2969 2.3281-0.54688 0-0.96875-0.42188-0.96875-1.1875 0-0.625 0.375-2.5 1.7188-2.8594z"/>
  </symbol>
  <symbol id="symbol1848" overflow="visible">
   <path d="m1.7812-1.1406c-0.39062 0.65625-0.78125 0.79688-1.2188 0.82812-0.125 0.015625-0.21875 0.015625-0.21875 0.20312 0 0.0625 0.0625 0.10938 0.14062 0.10938 0.26562 0 0.57812-0.03125 0.84375-0.03125 0.34375 0 0.6875 0.03125 1 0.03125 0.0625 0 0.1875 0 0.1875-0.1875 0-0.10938-0.078125-0.125-0.15625-0.125-0.21875-0.015625-0.46875-0.09375-0.46875-0.34375 0-0.125 0.0625-0.23438 0.14062-0.375l0.76562-1.2656h2.5c0.015625 0.20312 0.15625 1.5625 0.15625 1.6562 0 0.29688-0.51562 0.32812-0.71875 0.32812-0.14062 0-0.23438 0-0.23438 0.20312 0 0.10938 0.10938 0.10938 0.14062 0.10938 0.40625 0 0.82812-0.03125 1.2344-0.03125 0.25 0 0.89062 0.03125 1.1406 0.03125 0.046875 0 0.17188 0 0.17188-0.20312 0-0.10938-0.09375-0.10938-0.23438-0.10938-0.60938 0-0.60938-0.0625-0.64062-0.35938l-0.60938-6.2188c-0.015625-0.20312-0.015625-0.25-0.1875-0.25-0.15625 0-0.20312 0.078125-0.26562 0.17188zm1.2031-1.4688 1.9531-3.2969 0.32812 3.2969z"/>
  </symbol>
  <symbol id="symbol7153" overflow="visible">
   <path d="m2.0312-0.015625c0-0.65625-0.25-1.0469-0.64062-1.0469-0.32812 0-0.53125 0.25-0.53125 0.53125 0 0.26562 0.20312 0.53125 0.53125 0.53125 0.10938 0 0.25-0.046875 0.34375-0.125 0.03125-0.03125 0.046875-0.03125 0.046875-0.03125 0.015625 0 0.015625 0 0.015625 0.14062 0 0.75-0.34375 1.3438-0.67188 1.6719-0.10938 0.10938-0.10938 0.125-0.10938 0.15625 0 0.078125 0.046875 0.10938 0.09375 0.10938 0.10938 0 0.92188-0.76562 0.92188-1.9375z"/>
  </symbol>
  <symbol id="symbol9229" overflow="visible">
   <path d="m3.3281-3.0156c0.0625-0.25 0.29688-1.1719 0.98438-1.1719 0.046875 0 0.29688 0 0.5 0.125-0.28125 0.0625-0.46875 0.29688-0.46875 0.54688 0 0.15625 0.10938 0.34375 0.375 0.34375 0.21875 0 0.53125-0.17188 0.53125-0.57812 0-0.51562-0.57812-0.65625-0.92188-0.65625-0.57812 0-0.92188 0.53125-1.0469 0.75-0.25-0.65625-0.78125-0.75-1.0781-0.75-1.0312 0-1.6094 1.2812-1.6094 1.5312 0 0.10938 0.10938 0.10938 0.125 0.10938 0.078125 0 0.10938-0.03125 0.125-0.10938 0.34375-1.0625 1-1.3125 1.3438-1.3125 0.1875 0 0.53125 0.09375 0.53125 0.67188 0 0.3125-0.17188 0.96875-0.53125 2.375-0.15625 0.60938-0.51562 1.0312-0.95312 1.0312-0.0625 0-0.28125 0-0.5-0.125 0.25-0.0625 0.46875-0.26562 0.46875-0.54688 0-0.26562-0.21875-0.34375-0.35938-0.34375-0.3125 0-0.54688 0.25-0.54688 0.57812 0 0.45312 0.48438 0.65625 0.92188 0.65625 0.67188 0 1.0312-0.70312 1.0469-0.75 0.125 0.35938 0.48438 0.75 1.0781 0.75 1.0312 0 1.5938-1.2812 1.5938-1.5312 0-0.10938-0.078125-0.10938-0.10938-0.10938-0.09375 0-0.10938 0.046875-0.14062 0.10938-0.32812 1.0781-1 1.3125-1.3125 1.3125-0.39062 0-0.54688-0.3125-0.54688-0.65625 0-0.21875 0.046875-0.4375 0.15625-0.875z"/>
  </symbol>
  <symbol id="symbol6854" overflow="visible">
   <path d="m4.375-7.0938c0.046875-0.14062 0.046875-0.17188 0.046875-0.1875 0-0.10938-0.078125-0.20312-0.1875-0.20312-0.078125 0-0.14062 0.03125-0.17188 0.09375l-3.4688 9.5c-0.046875 0.14062-0.046875 0.17188-0.046875 0.1875 0 0.10938 0.09375 0.20312 0.20312 0.20312 0.125 0 0.15625-0.078125 0.21875-0.25z"/>
  </symbol>
  <symbol id="symbol3024" overflow="visible">
   <path d="m1.7344-0.73438c-0.0625 0.23438-0.29688 0.60938-0.65625 0.60938-0.015625 0-0.23438 0-0.375-0.09375 0.28125-0.09375 0.3125-0.34375 0.3125-0.39062 0-0.15625-0.125-0.25-0.28125-0.25-0.20312 0-0.40625 0.15625-0.40625 0.42188 0 0.34375 0.39062 0.5 0.73438 0.5 0.32812 0 0.60938-0.1875 0.78125-0.48438 0.17188 0.35938 0.54688 0.48438 0.82812 0.48438 0.8125 0 1.2344-0.85938 1.2344-1.0625 0-0.09375-0.09375-0.09375-0.10938-0.09375-0.10938 0-0.10938 0.046875-0.14062 0.125-0.14062 0.48438-0.5625 0.84375-0.95312 0.84375-0.28125 0-0.42188-0.1875-0.42188-0.45312 0-0.1875 0.17188-0.8125 0.35938-1.5938 0.14062-0.53125 0.45312-0.70312 0.6875-0.70312 0.015625 0 0.21875 0 0.375 0.09375-0.21875 0.0625-0.3125 0.26562-0.3125 0.39062 0 0.14062 0.125 0.25 0.28125 0.25s0.39062-0.125 0.39062-0.42188c0-0.39062-0.45312-0.51562-0.71875-0.51562-0.35938 0-0.64062 0.23438-0.78125 0.5-0.125-0.28125-0.45312-0.5-0.84375-0.5-0.78125 0-1.2188 0.85938-1.2188 1.0781 0 0.078125 0.09375 0.078125 0.10938 0.078125 0.09375 0 0.09375-0.015625 0.14062-0.10938 0.17188-0.54688 0.60938-0.84375 0.95312-0.84375 0.23438 0 0.42188 0.125 0.42188 0.45312 0 0.14062-0.09375 0.48438-0.15625 0.73438z"/>
  </symbol>
  <symbol id="symbol8192" overflow="visible">
   <path d="m1.9688-3.1094c0-0.125-0.078125-0.21875-0.21875-0.21875s-0.29688 0.14062-0.29688 0.29688c0 0.14062 0.10938 0.21875 0.21875 0.21875 0.15625 0 0.29688-0.14062 0.29688-0.29688zm0.23438 2.3906c0-0.0625-0.078125-0.0625-0.09375-0.0625-0.09375 0-0.09375 0.015625-0.125 0.10938-0.078125 0.26562-0.3125 0.5625-0.5625 0.5625-0.10938 0-0.14062-0.078125-0.14062-0.1875s0.015625-0.17188 0.0625-0.26562c0.03125-0.09375 0.078125-0.1875 0.10938-0.26562 0.015625-0.046875 0.20312-0.5 0.28125-0.6875 0.03125-0.09375 0.0625-0.17188 0.0625-0.25 0-0.23438-0.23438-0.4375-0.54688-0.4375-0.51562 0-0.79688 0.64062-0.79688 0.76562 0 0.078125 0.078125 0.078125 0.10938 0.078125 0.078125 0 0.078125-0.03125 0.10938-0.09375 0.10938-0.35938 0.34375-0.57812 0.5625-0.57812 0.09375 0 0.15625 0.046875 0.15625 0.1875 0 0.015625 0 0.078125-0.03125 0.17188s-0.26562 0.625-0.32812 0.79688c-0.046875 0.09375-0.046875 0.09375-0.10938 0.26562-0.03125 0.078125-0.0625 0.14062-0.0625 0.21875 0 0.26562 0.25 0.45312 0.54688 0.45312 0.51562 0 0.79688-0.65625 0.79688-0.78125z"/>
  </symbol>
  <symbol id="symbol4517" overflow="visible">
   <path d="m3.2969 2.3906c0-0.03125 0-0.046875-0.17188-0.21875-1.2344-1.25-1.5625-3.1406-1.5625-4.6719 0-1.7344 0.375-3.4688 1.6094-4.7031 0.125-0.125 0.125-0.14062 0.125-0.17188 0-0.078125-0.03125-0.10938-0.09375-0.10938-0.10938 0-1 0.6875-1.5938 1.9531-0.5 1.0938-0.625 2.2031-0.625 3.0312 0 0.78125 0.10938 1.9844 0.65625 3.125 0.60938 1.2188 1.4531 1.875 1.5625 1.875 0.0625 0 0.09375-0.03125 0.09375-0.10938z"/>
  </symbol>
  <symbol id="symbol9676" overflow="visible">
   <path d="m2.875-2.5c0-0.76562-0.10938-1.9688-0.65625-3.1094-0.59375-1.2188-1.4531-1.875-1.5469-1.875-0.0625 0-0.10938 0.046875-0.10938 0.10938 0 0.03125 0 0.046875 0.1875 0.23438 0.98438 0.98438 1.5469 2.5625 1.5469 4.6406 0 1.7188-0.35938 3.4688-1.5938 4.7188-0.14062 0.125-0.14062 0.14062-0.14062 0.17188 0 0.0625 0.046875 0.10938 0.10938 0.10938 0.09375 0 1-0.6875 1.5781-1.9531 0.51562-1.0938 0.625-2.2031 0.625-3.0469z"/>
  </symbol>
  <symbol id="symbol5789" overflow="visible">
   <path d="m1.9062-3.7656c0-0.29688-0.23438-0.53125-0.51562-0.53125-0.29688 0-0.53125 0.23438-0.53125 0.53125 0 0.28125 0.23438 0.53125 0.53125 0.53125 0.28125 0 0.51562-0.25 0.51562-0.53125zm0 3.2344c0-0.28125-0.23438-0.53125-0.51562-0.53125-0.29688 0-0.53125 0.25-0.53125 0.53125 0 0.29688 0.23438 0.53125 0.53125 0.53125 0.28125 0 0.51562-0.23438 0.51562-0.53125z"/>
  </symbol>
  <symbol id="symbol6062" overflow="visible">
   <path d="m6.8438-3.2656c0.15625 0 0.34375 0 0.34375-0.1875 0-0.20312-0.1875-0.20312-0.32812-0.20312h-5.9688c-0.14062 0-0.32812 0-0.32812 0.20312 0 0.1875 0.1875 0.1875 0.32812 0.1875zm0.015625 1.9375c0.14062 0 0.32812 0 0.32812-0.20312 0-0.1875-0.1875-0.1875-0.34375-0.1875h-5.9531c-0.14062 0-0.32812 0-0.32812 0.1875 0 0.20312 0.1875 0.20312 0.32812 0.20312z"/>
  </symbol>
  <symbol id="symbol882" overflow="visible">
   <path d="m2.9375-6.375c0-0.25 0-0.26562-0.23438-0.26562-0.625 0.64062-1.5 0.64062-1.8125 0.64062v0.3125c0.20312 0 0.78125 0 1.2969-0.26562v5.1719c0 0.35938-0.03125 0.46875-0.92188 0.46875h-0.3125v0.3125c0.34375-0.03125 1.2031-0.03125 1.6094-0.03125 0.39062 0 1.2656 0 1.6094 0.03125v-0.3125h-0.3125c-0.90625 0-0.92188-0.10938-0.92188-0.46875z"/>
  </symbol>
  <symbol id="symbol5144" overflow="visible">
   <path d="m4.5781-3.1875c0-0.79688-0.046875-1.5938-0.39062-2.3281-0.45312-0.96875-1.2812-1.125-1.6875-1.125-0.60938 0-1.3281 0.26562-1.75 1.1875-0.3125 0.6875-0.35938 1.4688-0.35938 2.2656 0 0.75 0.03125 1.6406 0.45312 2.4062 0.42188 0.79688 1.1562 1 1.6406 1 0.53125 0 1.2969-0.20312 1.7344-1.1562 0.3125-0.6875 0.35938-1.4688 0.35938-2.25zm-2.0938 3.1875c-0.39062 0-0.98438-0.25-1.1562-1.2031-0.10938-0.59375-0.10938-1.5156-0.10938-2.1094 0-0.64062 0-1.2969 0.078125-1.8281 0.1875-1.1875 0.9375-1.2812 1.1875-1.2812 0.32812 0 0.98438 0.1875 1.1719 1.1719 0.10938 0.5625 0.10938 1.3125 0.10938 1.9375 0 0.75 0 1.4219-0.10938 2.0625-0.15625 0.95312-0.71875 1.25-1.1719 1.25z"/>
  </symbol>
  <symbol id="symbol8456" overflow="visible">
   <path d="m4.1406 14.844c0-0.46875 0-1.2031-0.625-2.0156-0.39062-0.5-0.95312-0.95312-1.6406-1.2656 1.9375-0.9375 2.2656-2.375 2.2656-2.9375v-5.75c0-0.60938 0-1.8906 1.9375-2.8438 0.078125-0.046875 0.078125-0.0625 0.078125-0.20312 0-0.21875 0-0.23438-0.21875-0.23438-0.14062 0-0.15625 0-0.42188 0.125-0.98438 0.48438-1.9531 1.2812-2.1719 2.5-0.03125 0.1875-0.03125 0.28125-0.03125 0.95312v4.6094 0.9375c-0.09375 1.0469-0.70312 1.9531-1.8438 2.5781-0.15625 0.09375-0.15625 0.09375-0.15625 0.25 0 0.17188 0 0.1875 0.14062 0.26562 0.67188 0.375 1.625 1.0938 1.8281 2.3281 0.03125 0.23438 0.03125 0.25 0.03125 0.35938v5.9219c0 1.4531 1 2.3906 2.2344 2.9844 0.21875 0.10938 0.25 0.10938 0.39062 0.10938 0.21875 0 0.21875 0 0.21875-0.21875 0-0.15625 0-0.17188-0.078125-0.21875-0.42188-0.20312-1.7031-0.84375-1.9062-2.2812-0.03125-0.14062-0.03125-0.25-0.03125-0.84375z"/>
  </symbol>
  <symbol id="symbol5583" overflow="visible">
   <path d="m5.4688-2.2969c0.15625 0 0.34375 0 0.34375-0.20312 0-0.1875-0.1875-0.1875-0.34375-0.1875h-4.2344c0.125-1.3438 1.2656-2.2969 2.6719-2.2969h1.5625c0.15625 0 0.34375 0 0.34375-0.20312s-0.1875-0.20312-0.34375-0.20312h-1.5781c-1.7031 0-3.0625 1.2969-3.0625 2.8906 0 1.6094 1.3594 2.9062 3.0625 2.9062h1.5781c0.15625 0 0.34375 0 0.34375-0.20312s-0.1875-0.20312-0.34375-0.20312h-1.5625c-1.4062 0-2.5469-0.95312-2.6719-2.2969z"/>
  </symbol>
 </defs>
 <metadata>
  <rdf:RDF>
   <cc:Work rdf:about="">
    <dc:format>image/svg+xml</dc:format>
    <dc:type rdf:resource="http://purl.org/dc/dcmitype/StillImage"/>
    <dc:title/>
   </cc:Work>
  </rdf:RDF>
 </metadata>
 <g transform="translate(-2.8715 -3.8634)">
  <g transform="translate(-89.475 -68.129)">
   <g>
    <use x="91.925003" y="86.445999" width="100%" height="100%" xlink:href="#symbol5734"/>
    <use x="96.352997" y="87.941002" width="100%" height="100%" xlink:href="#symbol3024"/>
    <use x="100.871" y="88.936996" width="100%" height="100%" xlink:href="#symbol8192"/>
    <use x="104.525" y="86.445999" width="100%" height="100%" xlink:href="#symbol4517"/>
    <use x="108.399" y="86.445999" width="100%" height="100%" xlink:href="#symbol1848"/>
    <use x="115.871" y="86.445999" width="100%" height="100%" xlink:href="#symbol9676"/>
    <use x="122.51506" y="86.445999" width="100%" height="100%" xlink:href="#symbol5789"/>
    <use x="125.28267" y="86.445999" width="100%" height="100%" xlink:href="#symbol6062"/>
    <use x="135.797" y="72.399002" width="100%" height="100%" xlink:href="#symbol8456"/>
    <use x="143.269" y="80.369003" width="100%" height="100%" xlink:href="#symbol882"/>
    <use x="148.25" y="80.369003" width="100%" height="100%" xlink:href="#symbol7153"/>
    <use x="154.33516" y="80.369003" width="100%" height="100%" xlink:href="#symbol9229"/>
    <use x="162.799" y="80.369003" width="100%" height="100%" xlink:href="#symbol5583"/>
    <use x="172.209" y="80.369003" width="100%" height="100%" xlink:href="#symbol1848"/>
    <use x="143.269" y="92.323997" width="100%" height="100%" xlink:href="#symbol5144"/>
    <use x="148.25" y="92.323997" width="100%" height="100%" xlink:href="#symbol7153"/>
    <use x="154.33516" y="92.323997" width="100%" height="100%" xlink:href="#symbol9229"/>
    <use x="163.90424" y="92.323997" width="100%" height="100%" xlink:href="#symbol6854"/>
    <use x="162.799" y="92.323997" width="100%" height="100%" xlink:href="#symbol5583"/>
    <use x="172.209" y="92.323997" width="100%" height="100%" xlink:href="#symbol1848"/>
   </g>
  </g>
 </g>
</svg>
