<?xml version="1.0" encoding="UTF-8"?>
<svg width="44.497mm" height="11.139mm" version="1.1" viewBox="0 0 44.497 11.139" xmlns="http://www.w3.org/2000/svg" xmlns:cc="http://creativecommons.org/ns#" xmlns:dc="http://purl.org/dc/elements/1.1/" xmlns:rdf="http://www.w3.org/1999/02/22-rdf-syntax-ns#" xmlns:xlink="http://www.w3.org/1999/xlink">
 <defs>
  <symbol id="symbol4427" overflow="visible">
   <path d="m4.2031 5.3281-3.5469 4.375c-0.078125 0.09375-0.09375 0.10938-0.09375 0.15625 0 0.10938 0.09375 0.10938 0.28125 0.10938h8.25l0.85938-2.4844h-0.25c-0.25 0.75-0.90625 1.3594-1.7656 1.6406-0.15625 0.0625-0.84375 0.29688-2.3125 0.29688h-4.2344l3.4688-4.2812c0.0625-0.09375 0.078125-0.10938 0.078125-0.15625s0-0.046875-0.0625-0.14062l-3.2344-4.4375h3.9375c1.1406 0 3.4375 0.0625 4.125 1.9219h0.25l-0.85938-2.3281h-8.25c-0.28125 0-0.28125 0.015625-0.28125 0.3125z"/>
  </symbol>
  <symbol id="symbol1495" overflow="visible">
   <path d="m0.84375-0.4375c-0.015625 0.09375-0.0625 0.26562-0.0625 0.28125 0 0.15625 0.125 0.21875 0.23438 0.21875 0.125 0 0.23438-0.078125 0.28125-0.14062 0.03125-0.0625 0.078125-0.29688 0.125-0.4375 0.03125-0.125 0.10938-0.45312 0.14062-0.625 0.046875-0.15625 0.09375-0.3125 0.125-0.46875 0.078125-0.28125 0.09375-0.34375 0.29688-0.625 0.1875-0.28125 0.51562-0.64062 1.0469-0.64062 0.39062 0 0.40625 0.35938 0.40625 0.48438 0 0.42188-0.29688 1.1875-0.40625 1.4844-0.078125 0.20312-0.10938 0.26562-0.10938 0.375 0 0.375 0.29688 0.59375 0.65625 0.59375 0.70312 0 1-0.95312 1-1.0625 0-0.09375-0.078125-0.09375-0.10938-0.09375-0.09375 0-0.09375 0.046875-0.125 0.125-0.15625 0.5625-0.46875 0.84375-0.73438 0.84375-0.15625 0-0.1875-0.09375-0.1875-0.25s0.046875-0.25 0.17188-0.5625c0.078125-0.21875 0.35938-0.95312 0.35938-1.3438 0-0.67188-0.53125-0.79688-0.90625-0.79688-0.57812 0-0.96875 0.35938-1.1719 0.64062-0.046875-0.48438-0.45312-0.64062-0.75-0.64062s-0.45312 0.21875-0.54688 0.375c-0.15625 0.26562-0.25 0.65625-0.25 0.70312 0 0.078125 0.09375 0.078125 0.125 0.078125 0.09375 0 0.09375-0.015625 0.14062-0.20312 0.10938-0.40625 0.25-0.75 0.51562-0.75 0.1875 0 0.23438 0.15625 0.23438 0.34375 0 0.125-0.0625 0.39062-0.125 0.57812-0.046875 0.1875-0.10938 0.46875-0.14062 0.625z"/>
  </symbol>
  <symbol id="symbol3750" overflow="visible">
   <path d="m2.2656-4.3594c0-0.10938-0.09375-0.26562-0.28125-0.26562s-0.39062 0.1875-0.39062 0.39062c0 0.10938 0.078125 0.26562 0.28125 0.26562 0.1875 0 0.39062-0.20312 0.39062-0.39062zm-1.4219 3.5469c-0.03125 0.09375-0.0625 0.17188-0.0625 0.29688 0 0.32812 0.26562 0.57812 0.65625 0.57812 0.6875 0 1-0.95312 1-1.0625 0-0.09375-0.09375-0.09375-0.10938-0.09375-0.09375 0-0.10938 0.046875-0.14062 0.125-0.15625 0.5625-0.45312 0.84375-0.73438 0.84375-0.14062 0-0.17188-0.09375-0.17188-0.25s0.046875-0.28125 0.10938-0.4375c0.078125-0.1875 0.15625-0.375 0.21875-0.5625 0.0625-0.17188 0.32812-0.79688 0.34375-0.89062 0.03125-0.0625 0.046875-0.14062 0.046875-0.21875 0-0.32812-0.28125-0.59375-0.65625-0.59375-0.70312 0-1.0156 0.95312-1.0156 1.0781 0 0.078125 0.09375 0.078125 0.125 0.078125 0.09375 0 0.09375-0.03125 0.125-0.10938 0.17188-0.59375 0.48438-0.84375 0.73438-0.84375 0.10938 0 0.17188 0.046875 0.17188 0.23438 0 0.17188-0.03125 0.26562-0.20312 0.70312z"/>
  </symbol>
  <symbol id="symbol5988" overflow="visible">
   <path d="m1.7344-0.73438c-0.0625 0.23438-0.29688 0.60938-0.65625 0.60938-0.015625 0-0.23438 0-0.375-0.09375 0.28125-0.09375 0.3125-0.34375 0.3125-0.39062 0-0.15625-0.125-0.25-0.28125-0.25-0.20312 0-0.40625 0.15625-0.40625 0.42188 0 0.34375 0.39062 0.5 0.73438 0.5 0.32812 0 0.60938-0.1875 0.78125-0.48438 0.17188 0.35938 0.54688 0.48438 0.82812 0.48438 0.8125 0 1.2344-0.85938 1.2344-1.0625 0-0.09375-0.09375-0.09375-0.10938-0.09375-0.10938 0-0.10938 0.046875-0.14062 0.125-0.14062 0.48438-0.5625 0.84375-0.95312 0.84375-0.28125 0-0.42188-0.1875-0.42188-0.45312 0-0.1875 0.17188-0.8125 0.35938-1.5938 0.14062-0.53125 0.45312-0.70312 0.6875-0.70312 0.015625 0 0.21875 0 0.375 0.09375-0.21875 0.0625-0.3125 0.26562-0.3125 0.39062 0 0.14062 0.125 0.25 0.28125 0.25s0.39062-0.125 0.39062-0.42188c0-0.39062-0.45312-0.51562-0.71875-0.51562-0.35938 0-0.64062 0.23438-0.78125 0.5-0.125-0.28125-0.45312-0.5-0.84375-0.5-0.78125 0-1.2188 0.85938-1.2188 1.0781 0 0.078125 0.09375 0.078125 0.10938 0.078125 0.09375 0 0.09375-0.015625 0.14062-0.10938 0.17188-0.54688 0.60938-0.84375 0.95312-0.84375 0.23438 0 0.42188 0.125 0.42188 0.45312 0 0.14062-0.09375 0.48438-0.15625 0.73438z"/>
  </symbol>
  <symbol id="symbol9849" overflow="visible">
   <path d="m5.3594-2.3438c0.09375 0 0.25 0 0.25-0.17188s-0.15625-0.17188-0.25-0.17188h-4.6094c-0.09375 0-0.26562 0-0.26562 0.17188s0.15625 0.17188 0.26562 0.17188zm0 1.5312c0.09375 0 0.25 0 0.25-0.15625 0-0.1875-0.15625-0.1875-0.25-0.1875h-4.6094c-0.10938 0-0.26562 0-0.26562 0.1875 0 0.15625 0.17188 0.15625 0.26562 0.15625z"/>
  </symbol>
  <symbol id="symbol6534" overflow="visible">
   <path d="m2.3281-4.4375c0-0.1875 0-0.1875-0.20312-0.1875-0.45312 0.4375-1.0781 0.4375-1.3594 0.4375v0.25c0.15625 0 0.625 0 1-0.1875v3.5469c0 0.23438 0 0.32812-0.6875 0.32812h-0.26562v0.25c0.125 0 0.98438-0.03125 1.2344-0.03125 0.21875 0 1.0938 0.03125 1.25 0.03125v-0.25h-0.26562c-0.70312 0-0.70312-0.09375-0.70312-0.32812z"/>
  </symbol>
  <symbol id="symbol1855" overflow="visible">
   <path d="m0.45312 1.2188c-0.078125 0.34375-0.10938 0.40625-0.54688 0.40625-0.10938 0-0.21875 0-0.21875 0.1875 0 0.078125 0.046875 0.125 0.125 0.125 0.26562 0 0.5625-0.03125 0.82812-0.03125 0.34375 0 0.67188 0.03125 1 0.03125 0.046875 0 0.17188 0 0.17188-0.20312 0-0.10938-0.09375-0.10938-0.23438-0.10938-0.5 0-0.5-0.0625-0.5-0.15625 0-0.125 0.42188-1.75 0.48438-2 0.125 0.29688 0.40625 0.64062 0.92188 0.64062 1.1562 0 2.4062-1.4531 2.4062-2.9219 0-0.9375-0.57812-1.5938-1.3281-1.5938-0.5 0-0.98438 0.35938-1.3125 0.75-0.09375-0.54688-0.53125-0.75-0.89062-0.75-0.46875 0-0.65625 0.39062-0.73438 0.5625-0.1875 0.34375-0.3125 0.9375-0.3125 0.96875 0 0.10938 0.09375 0.10938 0.10938 0.10938 0.10938 0 0.10938-0.015625 0.17188-0.23438 0.17188-0.70312 0.375-1.1875 0.73438-1.1875 0.17188 0 0.3125 0.078125 0.3125 0.45312 0 0.23438-0.03125 0.34375-0.078125 0.51562zm1.75-4.3281c0.0625-0.26562 0.34375-0.54688 0.51562-0.70312 0.35938-0.29688 0.64062-0.375 0.8125-0.375 0.39062 0 0.64062 0.34375 0.64062 0.9375s-0.32812 1.7344-0.51562 2.1094c-0.34375 0.70312-0.8125 1.0312-1.1875 1.0312-0.65625 0-0.78125-0.82812-0.78125-0.89062 0-0.015625 0-0.03125 0.03125-0.15625z"/>
  </symbol>
  <symbol id="symbol7484" overflow="visible">
   <path d="m2.625-4.3594c-1.2344 0.29688-2.2031 1.5938-2.2031 2.7969 0 0.96875 0.64062 1.6875 1.5781 1.6875 1.1562 0 1.9844-1.5781 1.9844-2.9531 0-0.90625-0.39062-1.4062-0.73438-1.8438-0.35938-0.45312-0.95312-1.2031-0.95312-1.6406 0-0.21875 0.20312-0.45312 0.54688-0.45312 0.3125 0 0.5 0.125 0.71875 0.26562 0.20312 0.125 0.39062 0.25 0.54688 0.25 0.25 0 0.39062-0.23438 0.39062-0.40625 0-0.21875-0.15625-0.23438-0.51562-0.32812-0.51562-0.10938-0.65625-0.10938-0.8125-0.10938-0.78125 0-1.1406 0.4375-1.1406 1.0312 0 0.54688 0.29688 1.0938 0.59375 1.7031zm0.125 0.21875c0.25 0.46875 0.54688 1 0.54688 1.7188 0 0.65625-0.375 2.3281-1.2969 2.3281-0.54688 0-0.96875-0.42188-0.96875-1.1875 0-0.625 0.375-2.5 1.7188-2.8594z"/>
  </symbol>
  <symbol id="symbol9143" overflow="visible">
   <path d="m1.9688-3.1094c0-0.125-0.078125-0.21875-0.21875-0.21875s-0.29688 0.14062-0.29688 0.29688c0 0.14062 0.10938 0.21875 0.21875 0.21875 0.15625 0 0.29688-0.14062 0.29688-0.29688zm0.23438 2.3906c0-0.0625-0.078125-0.0625-0.09375-0.0625-0.09375 0-0.09375 0.015625-0.125 0.10938-0.078125 0.26562-0.3125 0.5625-0.5625 0.5625-0.10938 0-0.14062-0.078125-0.14062-0.1875s0.015625-0.17188 0.0625-0.26562c0.03125-0.09375 0.078125-0.1875 0.10938-0.26562 0.015625-0.046875 0.20312-0.5 0.28125-0.6875 0.03125-0.09375 0.0625-0.17188 0.0625-0.25 0-0.23438-0.23438-0.4375-0.54688-0.4375-0.51562 0-0.79688 0.64062-0.79688 0.76562 0 0.078125 0.078125 0.078125 0.10938 0.078125 0.078125 0 0.078125-0.03125 0.10938-0.09375 0.10938-0.35938 0.34375-0.57812 0.5625-0.57812 0.09375 0 0.15625 0.046875 0.15625 0.1875 0 0.015625 0 0.078125-0.03125 0.17188s-0.26562 0.625-0.32812 0.79688c-0.046875 0.09375-0.046875 0.09375-0.10938 0.26562-0.03125 0.078125-0.0625 0.14062-0.0625 0.21875 0 0.26562 0.25 0.45312 0.54688 0.45312 0.51562 0 0.79688-0.65625 0.79688-0.78125z"/>
  </symbol>
 </defs>
 <metadata>
  <rdf:RDF>
   <cc:Work rdf:about="">
    <dc:format>image/svg+xml</dc:format>
    <dc:type rdf:resource="http://purl.org/dc/dcmitype/StillImage"/>
    <dc:title/>
   </cc:Work>
  </rdf:RDF>
 </metadata>
 <g transform="translate(-139.67 -173.47)">
  <g transform="translate(47.18 99.598)">
   <g>
    <use x="91.925003" y="74.490997" width="100%" height="100%" xlink:href="#symbol4427"/>
    <use x="102.441" y="76.954002" width="100%" height="100%" xlink:href="#symbol1495"/>
    <use x="102.441" y="84.952003" width="100%" height="100%" xlink:href="#symbol3750"/>
    <use x="105.26" y="84.952003" width="100%" height="100%" xlink:href="#symbol9849"/>
    <use x="111.37602" y="84.952003" width="100%" height="100%" xlink:href="#symbol6534"/>
    <use x="117.506" y="81.962997" width="100%" height="100%" xlink:href="#symbol1855"/>
    <use x="122.518" y="83.457001" width="100%" height="100%" xlink:href="#symbol3750"/>
    <use x="125.835" y="81.962997" width="100%" height="100%" xlink:href="#symbol7484"/>
    <use x="130.263" y="83.457001" width="100%" height="100%" xlink:href="#symbol5988"/>
    <use x="134.78101" y="84.454002" width="100%" height="100%" xlink:href="#symbol9143"/>
   </g>
  </g>
 </g>
</svg>
